<svg data-v-423bf9ae="" xmlns="http://www.w3.org/2000/svg" viewBox="0 0 552 90" class="iconLeft"><!----><!----><defs data-v-423bf9ae=""><linearGradient data-v-423bf9ae="" gradientTransform="rotate(25)" id="95c5e4c5-ccbc-4922-bbc3-7c107ea232d0" x1="0%" y1="0%" x2="100%" y2="0%"><stop data-v-423bf9ae="" offset="0%" style="stop-color: rgb(0, 178, 149); stop-opacity: 1;"></stop><stop data-v-423bf9ae="" offset="100%" style="stop-color: rgb(194, 168, 62); stop-opacity: 1;"></stop></linearGradient></defs><g data-v-423bf9ae="" id="1c4f616f-1692-4958-8a4d-3c1ad0794a6c" fill="url(#95c5e4c5-ccbc-4922-bbc3-7c107ea232d0)" transform="matrix(4.067796873176502,0,0,4.067796873176502,86.81842281527886,5.318641545806038)"><path d="M7.11 3.46L7.11 2.38L1.37 2.38L1.37 12.88L7.11 12.88L7.11 11.79L2.49 11.79L2.49 8.17L6.51 8.17L6.51 7.09L2.49 7.09L2.49 3.46ZM16.14 5.74C15.30 5.74 14.56 6.14 14.09 6.79C13.62 6.14 12.88 5.74 12.15 5.74C11.52 5.74 10.94 6.05 10.52 6.53L10.52 5.88L9.43 5.88L9.43 12.88L10.52 12.88L10.52 8.40C10.52 7.53 11.18 6.83 12.04 6.83C12.86 6.83 13.55 7.53 13.55 8.40L13.55 12.88L14.63 12.88L14.63 8.40C14.63 7.53 15.31 6.83 16.14 6.83C16.98 6.83 17.66 7.53 17.66 8.40L17.66 12.88L18.74 12.88L18.74 8.40C18.74 6.93 17.59 5.74 16.14 5.74ZM24.83 5.74C23.84 5.74 22.94 6.14 22.28 6.79L22.28 5.88L21.19 5.88L21.19 17.08L22.28 17.08L22.28 11.97C22.94 12.62 23.84 13.02 24.83 13.02C26.85 13.02 28.47 11.39 28.47 9.38C28.47 7.37 26.85 5.74 24.83 5.74ZM24.83 11.94C23.42 11.94 22.28 10.80 22.28 9.38C22.28 7.96 23.42 6.83 24.83 6.83C26.25 6.83 27.39 7.96 27.39 9.38C27.39 10.80 26.25 11.94 24.83 11.94ZM33.69 13.02C35.70 13.02 37.33 11.39 37.33 9.38C37.33 7.37 35.70 5.74 33.69 5.74C31.68 5.74 30.05 7.37 30.05 9.38C30.05 11.39 31.68 13.02 33.69 13.02ZM33.69 11.94C32.27 11.94 31.13 10.80 31.13 9.38C31.13 7.96 32.27 6.83 33.69 6.83C35.09 6.83 36.24 7.96 36.24 9.38C36.24 10.80 35.09 11.94 33.69 11.94ZM48.02 5.88L46.17 11.62L44.26 5.88L43.23 5.88L41.32 11.59L39.50 5.88L38.27 5.88L40.69 12.88L41.88 12.88L43.75 7.39L45.61 12.88L46.80 12.88L49.19 5.88ZM57.42 9.31C57.37 7.30 55.77 5.74 53.78 5.74C51.77 5.74 50.14 7.37 50.14 9.38C50.14 11.39 51.77 13.02 53.78 13.02C55.44 13.02 56.82 11.92 57.28 10.41L56.12 10.41C55.74 11.32 54.83 11.94 53.78 11.94C52.40 11.94 51.29 10.89 51.22 9.54L57.40 9.54ZM53.78 6.83C54.90 6.83 55.84 7.54 56.18 8.56L51.36 8.56C51.71 7.54 52.66 6.83 53.78 6.83ZM62.83 5.74C61.83 5.74 61.02 6.18 60.50 6.88L60.50 5.88L59.41 5.88L59.41 12.88L60.50 12.88L60.50 9.08C60.50 7.81 61.55 6.83 62.83 6.83C63.04 6.83 63.21 6.84 63.37 6.90L63.37 5.79C63.21 5.76 63.04 5.74 62.83 5.74ZM74.78 3.46L74.78 2.38L69.04 2.38L69.04 12.88L74.78 12.88L74.78 11.79L70.16 11.79L70.16 8.17L74.18 8.17L74.18 7.09L70.16 7.09L70.16 3.46ZM79.89 5.74C79.24 5.74 78.64 6.00 78.19 6.44L78.19 5.88L77.11 5.88L77.11 12.88L78.19 12.88L78.19 8.42C78.19 7.53 78.91 6.83 79.80 6.83C80.69 6.83 81.39 7.53 81.39 8.42L81.39 12.88L82.48 12.88L82.48 8.42C82.48 6.93 81.23 5.74 79.89 5.74ZM91.73 9.31C91.68 7.30 90.09 5.74 88.09 5.74C86.08 5.74 84.45 7.37 84.45 9.38C84.45 11.39 86.08 13.02 88.09 13.02C89.76 13.02 91.14 11.92 91.59 10.41L90.44 10.41C90.06 11.32 89.15 11.94 88.09 11.94C86.71 11.94 85.61 10.89 85.54 9.54L91.72 9.54ZM88.09 6.83C89.22 6.83 90.16 7.54 90.49 8.56L85.68 8.56C86.03 7.54 86.98 6.83 88.09 6.83ZM97.14 5.74C96.14 5.74 95.34 6.18 94.81 6.88L94.81 5.88L93.73 5.88L93.73 12.88L94.81 12.88L94.81 9.08C94.81 7.81 95.86 6.83 97.14 6.83C97.35 6.83 97.53 6.84 97.69 6.90L97.69 5.79C97.53 5.76 97.35 5.74 97.14 5.74ZM104.74 5.88L104.74 6.75C104.09 6.13 103.18 5.74 102.20 5.74C100.19 5.74 98.56 7.35 98.56 9.38C98.56 11.39 100.19 13.02 102.20 13.02C103.20 13.02 104.09 12.62 104.76 11.97L104.76 13.49C104.76 14.89 103.60 16.05 102.20 16.05C101.06 16.05 100.10 15.30 99.77 14.28L98.77 14.72C99.28 16.14 100.63 17.13 102.20 17.13C104.21 17.13 105.84 15.51 105.84 13.49L105.84 5.88ZM102.20 11.94C100.78 11.94 99.65 10.78 99.65 9.38C99.65 7.96 100.78 6.83 102.20 6.83C103.60 6.83 104.76 7.96 104.76 9.38C104.76 10.78 103.60 11.94 102.20 11.94ZM112.89 5.88L110.72 11.62L108.48 5.88L107.28 5.88L110.15 12.93L108.47 17.08L109.62 17.08L111.11 13.41L114.12 5.88Z"></path></g><!----><g data-v-423bf9ae="" id="bf08f7f8-82d7-4eaa-862e-859a8f795898" transform="matrix(1.9565217391304348,0,0,1.9565217391304348,-24.630434782608695,-17.608695652173914)" stroke="none" fill="#254330"><path d="M31 40c-7.168 0-13-5.832-13-13s5.832-13 13-13 13 5.832 13 13-5.832 13-13 13zm0-24c-6.065 0-11 4.935-11 11s4.935 11 11 11 11-4.935 11-11-4.935-11-11-11zM31 13a1 1 0 0 1-1-1v-2a1 1 0 0 1 2 0v2a1 1 0 0 1-1 1zM38.499 15.01a.999.999 0 0 1-.865-1.5l1-1.732A.999.999 0 0 1 40 11.412a.999.999 0 0 1 .366 1.366l-1 1.732a.998.998 0 0 1-.867.5zM43.991 20.5a1 1 0 0 1-.501-1.866l1.732-1a1 1 0 1 1 1 1.732l-1.732 1a.992.992 0 0 1-.499.134zM48 28h-2a1 1 0 1 1 0-2h2a1 1 0 1 1 0 2zM45.722 36.5a.992.992 0 0 1-.499-.134l-1.732-1a1 1 0 1 1 1-1.732l1.732 1a.999.999 0 0 1-.501 1.866zM39.501 42.723a1 1 0 0 1-.867-.5l-1-1.732a1 1 0 0 1 1.732-1l1 1.732a1 1 0 0 1-.865 1.5zM22.499 42.723a1 1 0 0 1-.865-1.5l1-1.732a1 1 0 0 1 1.732 1l-1 1.732a1 1 0 0 1-.867.5zM16.278 36.5a1 1 0 0 1-.501-1.866l1.732-1a1 1 0 0 1 1 1.732l-1.732 1a.992.992 0 0 1-.499.134zM16 28h-2a1 1 0 0 1 0-2h2a1 1 0 0 1 0 2zM18.009 20.5a.997.997 0 0 1-.499-.134l-1.732-1a1 1 0 0 1 1-1.732l1.732 1a1 1 0 0 1-.501 1.866zM23.501 15.01a.998.998 0 0 1-.867-.5l-1-1.732a1 1 0 0 1 1.732-1l1 1.732a1 1 0 0 1-.865 1.5z"></path><path d="M16.279 36.5a1 1 0 0 1-.501-1.866l1.731-1a1 1 0 1 1 1 1.732l-1.731 1a.992.992 0 0 1-.499.134zM18.009 20.5a.992.992 0 0 1-.499-.134l-1.731-1A.999.999 0 0 1 15.413 18a.998.998 0 0 1 1.366-.366l1.731 1a1 1 0 0 1-.501 1.866zM31 33a1 1 0 0 1-.928-1.371L31.523 28H29a1.001 1.001 0 0 1-.929-1.371l2-5a1 1 0 0 1 1.857.743L30.477 26H33a1.001 1.001 0 0 1 .929 1.371l-2 5A1.002 1.002 0 0 1 31 33zM46 45h-2c-1.654 0-3 1.346-3 3h-8c-.551 0-1-.448-1-1v-5a1 1 0 1 0-2 0v5c0 1.654 1.346 3 3 3h8c0 1.654 1.346 3 3 3h2a1 1 0 0 0 1-1v-6a1 1 0 0 0-1-1zm-1 6h-1a1 1 0 0 1-1-1v-2a1 1 0 0 1 1-1h1v4zM49 55a1 1 0 0 1-1-1V44a1 1 0 1 1 2 0v10a1 1 0 0 1-1 1z"></path></g><!----></svg>